<svg width="75" height="66" viewBox="0 0 75 66" fill="none" xmlns="http://www.w3.org/2000/svg">
<g clip-path="url(#clip0_119_955)">
<path d="M43.2873 8.10175C44.768 8.10175 45.9684 6.91565 45.9684 5.45251C45.9684 3.98937 44.768 2.80327 43.2873 2.80327C41.8066 2.80327 40.6062 3.98937 40.6062 5.45251C40.6062 6.91565 41.8066 8.10175 43.2873 8.10175Z" fill="#164E87"/>
<path d="M44.0299 4.93862C44.3617 4.93862 44.6307 4.67281 44.6307 4.34492C44.6307 4.01703 44.3617 3.75122 44.0299 3.75122C43.698 3.75122 43.429 4.01703 43.429 4.34492C43.429 4.67281 43.698 4.93862 44.0299 4.93862Z" fill="white"/>
<path d="M44.6292 14.638C46.11 14.638 47.3103 13.4519 47.3103 11.9888C47.3103 10.5257 46.11 9.33955 44.6292 9.33955C43.1485 9.33955 41.9481 10.5257 41.9481 11.9888C41.9481 13.4519 43.1485 14.638 44.6292 14.638Z" fill="#164E87"/>
<path d="M45.3718 11.4763C45.7036 11.4763 45.9726 11.2105 45.9726 10.8826C45.9726 10.5547 45.7036 10.2889 45.3718 10.2889C45.0399 10.2889 44.7709 10.5547 44.7709 10.8826C44.7709 11.2105 45.0399 11.4763 45.3718 11.4763Z" fill="white"/>
<path d="M36.6157 9.53839C38.0965 9.53839 39.2968 8.35228 39.2968 6.88915C39.2968 5.42601 38.0965 4.23991 36.6157 4.23991C35.135 4.23991 33.9346 5.42601 33.9346 6.88915C33.9346 8.35228 35.135 9.53839 36.6157 9.53839Z" fill="#164E87"/>
<path d="M37.3583 6.37526C37.6901 6.37526 37.9591 6.10946 37.9591 5.78157C37.9591 5.45367 37.6901 5.18787 37.3583 5.18787C37.0264 5.18787 36.7574 5.45367 36.7574 5.78157C36.7574 6.10946 37.0264 6.37526 37.3583 6.37526Z" fill="white"/>
<path d="M38.0357 16.0425C39.5164 16.0425 40.7168 14.8564 40.7168 13.3932C40.7168 11.9301 39.5164 10.744 38.0357 10.744C36.5549 10.744 35.3546 11.9301 35.3546 13.3932C35.3546 14.8564 36.5549 16.0425 38.0357 16.0425Z" fill="#164E87"/>
<path d="M38.7782 12.8794C39.11 12.8794 39.379 12.6135 39.379 12.2857C39.379 11.9578 39.11 11.692 38.7782 11.692C38.4464 11.692 38.1774 11.9578 38.1774 12.2857C38.1774 12.6135 38.4464 12.8794 38.7782 12.8794Z" fill="white"/>
<path d="M29.964 10.9512C31.4447 10.9512 32.6451 9.76512 32.6451 8.30199C32.6451 6.83885 31.4447 5.65274 29.964 5.65274C28.4833 5.65274 27.2829 6.83885 27.2829 8.30199C27.2829 9.76512 28.4833 10.9512 29.964 10.9512Z" fill="#164E87"/>
<path d="M30.7066 7.7895C31.0384 7.7895 31.3074 7.52369 31.3074 7.1958C31.3074 6.86791 31.0384 6.6021 30.7066 6.6021C30.3747 6.6021 30.1057 6.86791 30.1057 7.1958C30.1057 7.52369 30.3747 7.7895 30.7066 7.7895Z" fill="white"/>
<path d="M31.3839 17.4553C32.8646 17.4553 34.065 16.2692 34.065 14.8061C34.065 13.3429 32.8646 12.1568 31.3839 12.1568C29.9031 12.1568 28.7028 13.3429 28.7028 14.8061C28.7028 16.2692 29.9031 17.4553 31.3839 17.4553Z" fill="#164E87"/>
<path d="M32.1264 14.2936C32.4582 14.2936 32.7273 14.0278 32.7273 13.6999C32.7273 13.372 32.4582 13.1062 32.1264 13.1062C31.7946 13.1062 31.5256 13.372 31.5256 13.6999C31.5256 14.0278 31.7946 14.2936 32.1264 14.2936Z" fill="white"/>
<path d="M23.3533 12.3361C24.8341 12.3361 26.0344 11.15 26.0344 9.68682C26.0344 8.22368 24.8341 7.03757 23.3533 7.03757C21.8726 7.03757 20.6722 8.22368 20.6722 9.68682C20.6722 11.15 21.8726 12.3361 23.3533 12.3361Z" fill="#164E87"/>
<path d="M24.0959 9.17293C24.4277 9.17293 24.6967 8.90712 24.6967 8.57923C24.6967 8.25134 24.4277 7.98553 24.0959 7.98553C23.7641 7.98553 23.4951 8.25134 23.4951 8.57923C23.4951 8.90712 23.7641 9.17293 24.0959 9.17293Z" fill="white"/>
<path d="M24.7747 18.8387C26.2554 18.8387 27.4558 17.6526 27.4558 16.1895C27.4558 14.7264 26.2554 13.5403 24.7747 13.5403C23.2939 13.5403 22.0936 14.7264 22.0936 16.1895C22.0936 17.6526 23.2939 18.8387 24.7747 18.8387Z" fill="#164E87"/>
<path d="M25.5158 15.677C25.8476 15.677 26.1167 15.4112 26.1167 15.0833C26.1167 14.7554 25.8476 14.4896 25.5158 14.4896C25.184 14.4896 24.915 14.7554 24.915 15.0833C24.915 15.4112 25.184 15.677 25.5158 15.677Z" fill="white"/>
<path d="M16.72 13.6901C18.2008 13.6901 19.4011 12.504 19.4011 11.0408C19.4011 9.57771 18.2008 8.3916 16.72 8.3916C15.2393 8.3916 14.0389 9.57771 14.0389 11.0408C14.0389 12.504 15.2393 13.6901 16.72 13.6901Z" fill="#164E87"/>
<path d="M17.4626 10.527C17.7944 10.527 18.0634 10.2611 18.0634 9.93326C18.0634 9.60537 17.7944 9.33956 17.4626 9.33956C17.1308 9.33956 16.8618 9.60537 16.8618 9.93326C16.8618 10.2611 17.1308 10.527 17.4626 10.527Z" fill="white"/>
<path d="M18.1399 20.1928C19.6206 20.1928 20.821 19.0067 20.821 17.5435C20.821 16.0804 19.6206 14.8943 18.1399 14.8943C16.6592 14.8943 15.4588 16.0804 15.4588 17.5435C15.4588 19.0067 16.6592 20.1928 18.1399 20.1928Z" fill="#164E87"/>
<path d="M18.8825 17.031C19.2143 17.031 19.4833 16.7652 19.4833 16.4373C19.4833 16.1095 19.2143 15.8436 18.8825 15.8436C18.5506 15.8436 18.2816 16.1095 18.2816 16.4373C18.2816 16.7652 18.5506 17.031 18.8825 17.031Z" fill="white"/>
<path d="M11.5194 21.6854C13.0001 21.6854 14.2005 20.4993 14.2005 19.0362C14.2005 17.573 13.0001 16.3869 11.5194 16.3869C10.0386 16.3869 8.83826 17.573 8.83826 19.0362C8.83826 20.4993 10.0386 21.6854 11.5194 21.6854Z" fill="#164E87"/>
<path d="M12.2605 18.5237C12.5923 18.5237 12.8613 18.2579 12.8613 17.93C12.8613 17.6021 12.5923 17.3363 12.2605 17.3363C11.9287 17.3363 11.6597 17.6021 11.6597 17.93C11.6597 18.2579 11.9287 18.5237 12.2605 18.5237Z" fill="white"/>
<path d="M12.9393 28.1895C14.42 28.1895 15.6204 27.0034 15.6204 25.5403C15.6204 24.0771 14.42 22.891 12.9393 22.891C11.4585 22.891 10.2582 24.0771 10.2582 25.5403C10.2582 27.0034 11.4585 28.1895 12.9393 28.1895Z" fill="#164E87"/>
<path d="M13.6804 25.0264C14.0123 25.0264 14.2813 24.7606 14.2813 24.4327C14.2813 24.1048 14.0123 23.839 13.6804 23.839C13.3486 23.839 13.0796 24.1048 13.0796 24.4327C13.0796 24.7606 13.3486 25.0264 13.6804 25.0264Z" fill="white"/>
<path d="M19.5428 26.8061C21.0235 26.8061 22.2239 25.62 22.2239 24.1568C22.2239 22.6937 21.0235 21.5076 19.5428 21.5076C18.0621 21.5076 16.8617 22.6937 16.8617 24.1568C16.8617 25.62 18.0621 26.8061 19.5428 26.8061Z" fill="#164E87"/>
<path d="M20.2853 23.6429C20.6172 23.6429 20.8862 23.3771 20.8862 23.0492C20.8862 22.7214 20.6172 22.4555 20.2853 22.4555C19.9535 22.4555 19.6845 22.7214 19.6845 23.0492C19.6845 23.3771 19.9535 23.6429 20.2853 23.6429Z" fill="white"/>
<path d="M20.9628 33.3087C22.4435 33.3087 23.6439 32.1226 23.6439 30.6595C23.6439 29.1964 22.4435 28.0103 20.9628 28.0103C19.482 28.0103 18.2817 29.1964 18.2817 30.6595C18.2817 32.1226 19.482 33.3087 20.9628 33.3087Z" fill="#B72227"/>
<path d="M21.7053 30.147C22.0372 30.147 22.3062 29.8812 22.3062 29.5533C22.3062 29.2254 22.0372 28.9596 21.7053 28.9596C21.3735 28.9596 21.1045 29.2254 21.1045 29.5533C21.1045 29.8812 21.3735 30.147 21.7053 30.147Z" fill="white"/>
<path d="M14.3592 34.7524C15.8399 34.7524 17.0403 33.5663 17.0403 32.1032C17.0403 30.64 15.8399 29.4539 14.3592 29.4539C12.8785 29.4539 11.6781 30.64 11.6781 32.1032C11.6781 33.5663 12.8785 34.7524 14.3592 34.7524Z" fill="#B72227"/>
<path d="M15.1018 31.5893C15.4336 31.5893 15.7026 31.3235 15.7026 30.9956C15.7026 30.6677 15.4336 30.4019 15.1018 30.4019C14.7699 30.4019 14.5009 30.6677 14.5009 30.9956C14.5009 31.3235 14.7699 31.5893 15.1018 31.5893Z" fill="white"/>
<path d="M15.7805 41.2565C17.2613 41.2565 18.4616 40.0704 18.4616 38.6072C18.4616 37.1441 17.2613 35.958 15.7805 35.958C14.2998 35.958 13.0994 37.1441 13.0994 38.6072C13.0994 40.0704 14.2998 41.2565 15.7805 41.2565Z" fill="#B72227"/>
<path d="M16.5217 38.0933C16.8535 38.0933 17.1225 37.8275 17.1225 37.4996C17.1225 37.1718 16.8535 36.9059 16.5217 36.9059C16.1898 36.9059 15.9208 37.1718 15.9208 37.4996C15.9208 37.8275 16.1898 38.0933 16.5217 38.0933Z" fill="white"/>
<path d="M22.445 39.9683C23.9257 39.9683 25.1261 38.7822 25.1261 37.319C25.1261 35.8559 23.9257 34.6698 22.445 34.6698C20.9643 34.6698 19.7639 35.8559 19.7639 37.319C19.7639 38.7822 20.9643 39.9683 22.445 39.9683Z" fill="#B72227"/>
<path d="M23.1876 36.8051C23.5194 36.8051 23.7884 36.5393 23.7884 36.2114C23.7884 35.8835 23.5194 35.6177 23.1876 35.6177C22.8557 35.6177 22.5867 35.8835 22.5867 36.2114C22.5867 36.5393 22.8557 36.8051 23.1876 36.8051Z" fill="white"/>
<path d="M23.8663 46.4709C25.3471 46.4709 26.5474 45.2848 26.5474 43.8217C26.5474 42.3586 25.3471 41.1725 23.8663 41.1725C22.3856 41.1725 21.1852 42.3586 21.1852 43.8217C21.1852 45.2848 22.3856 46.4709 23.8663 46.4709Z" fill="#B72227"/>
<path d="M24.6075 43.3092C24.9393 43.3092 25.2083 43.0434 25.2083 42.7155C25.2083 42.3876 24.9393 42.1218 24.6075 42.1218C24.2757 42.1218 24.0067 42.3876 24.0067 42.7155C24.0067 43.0434 24.2757 43.3092 24.6075 43.3092Z" fill="white"/>
<path d="M28.9834 38.5596C30.4641 38.5596 31.6645 37.3735 31.6645 35.9104C31.6645 34.4473 30.4641 33.2612 28.9834 33.2612C27.5027 33.2612 26.3023 34.4473 26.3023 35.9104C26.3023 37.3735 27.5027 38.5596 28.9834 38.5596Z" fill="#B72227"/>
<path d="M29.726 35.3965C30.0578 35.3965 30.3268 35.1307 30.3268 34.8028C30.3268 34.4749 30.0578 34.2091 29.726 34.2091C29.3941 34.2091 29.1251 34.4749 29.1251 34.8028C29.1251 35.1307 29.3941 35.3965 29.726 35.3965Z" fill="white"/>
<path d="M30.4047 45.0637C31.8855 45.0637 33.0858 43.8776 33.0858 42.4145C33.0858 40.9513 31.8855 39.7652 30.4047 39.7652C28.924 39.7652 27.7236 40.9513 27.7236 42.4145C27.7236 43.8776 28.924 45.0637 30.4047 45.0637Z" fill="#B72227"/>
<path d="M31.1459 41.9006C31.4777 41.9006 31.7467 41.6348 31.7467 41.3069C31.7467 40.979 31.4777 40.7132 31.1459 40.7132C30.814 40.7132 30.545 40.979 30.545 41.3069C30.545 41.6348 30.814 41.9006 31.1459 41.9006Z" fill="white"/>
<path d="M35.6451 37.1832C37.1258 37.1832 38.3262 35.9971 38.3262 34.534C38.3262 33.0708 37.1258 31.8847 35.6451 31.8847C34.1644 31.8847 32.964 33.0708 32.964 34.534C32.964 35.9971 34.1644 37.1832 35.6451 37.1832Z" fill="#B72227"/>
<path d="M36.3876 34.0215C36.7195 34.0215 36.9885 33.7557 36.9885 33.4278C36.9885 33.0999 36.7195 32.8341 36.3876 32.8341C36.0558 32.8341 35.7868 33.0999 35.7868 33.4278C35.7868 33.7557 36.0558 34.0215 36.3876 34.0215Z" fill="white"/>
<path d="M37.0664 43.6873C38.5471 43.6873 39.7475 42.5012 39.7475 41.038C39.7475 39.5749 38.5471 38.3888 37.0664 38.3888C35.5856 38.3888 34.3853 39.5749 34.3853 41.038C34.3853 42.5012 35.5856 43.6873 37.0664 43.6873Z" fill="#B72227"/>
<path d="M37.8075 40.5255C38.1393 40.5255 38.4083 40.2597 38.4083 39.9318C38.4083 39.604 38.1393 39.3382 37.8075 39.3382C37.4757 39.3382 37.2067 39.604 37.2067 39.9318C37.2067 40.2597 37.4757 40.5255 37.8075 40.5255Z" fill="white"/>
<path d="M42.2472 35.8222C43.7279 35.8222 44.9283 34.6361 44.9283 33.1729C44.9283 31.7098 43.7279 30.5237 42.2472 30.5237C40.7665 30.5237 39.5661 31.7098 39.5661 33.1729C39.5661 34.6361 40.7665 35.8222 42.2472 35.8222Z" fill="#B72227"/>
<path d="M42.9898 32.659C43.3216 32.659 43.5906 32.3932 43.5906 32.0653C43.5906 31.7375 43.3216 31.4716 42.9898 31.4716C42.6579 31.4716 42.3889 31.7375 42.3889 32.0653C42.3889 32.3932 42.6579 32.659 42.9898 32.659Z" fill="white"/>
<path d="M43.6685 42.3249C45.1493 42.3249 46.3496 41.1388 46.3496 39.6756C46.3496 38.2125 45.1493 37.0264 43.6685 37.0264C42.1878 37.0264 40.9874 38.2125 40.9874 39.6756C40.9874 41.1388 42.1878 42.3249 43.6685 42.3249Z" fill="#B72227"/>
<path d="M44.4096 39.1631C44.7415 39.1631 45.0105 38.8973 45.0105 38.5694C45.0105 38.2415 44.7415 37.9757 44.4096 37.9757C44.0778 37.9757 43.8088 38.2415 43.8088 38.5694C43.8088 38.8973 44.0778 39.1631 44.4096 39.1631Z" fill="white"/>
<path d="M48.889 34.2973C50.3697 34.2973 51.5701 33.1112 51.5701 31.6481C51.5701 30.1849 50.3697 28.9988 48.889 28.9988C47.4083 28.9988 46.2079 30.1849 46.2079 31.6481C46.2079 33.1112 47.4083 34.2973 48.889 34.2973Z" fill="#B72227"/>
<path d="M49.6315 31.1356C49.9634 31.1356 50.2324 30.8698 50.2324 30.5419C50.2324 30.214 49.9634 29.9482 49.6315 29.9482C49.2997 29.9482 49.0307 30.214 49.0307 30.5419C49.0307 30.8698 49.2997 31.1356 49.6315 31.1356Z" fill="white"/>
<path d="M50.3104 40.8014C51.7911 40.8014 52.9915 39.6153 52.9915 38.1522C52.9915 36.689 51.7911 35.5029 50.3104 35.5029C48.8296 35.5029 47.6293 36.689 47.6293 38.1522C47.6293 39.6153 48.8296 40.8014 50.3104 40.8014Z" fill="#B72227"/>
<path d="M51.0515 37.6383C51.3834 37.6383 51.6524 37.3725 51.6524 37.0446C51.6524 36.7167 51.3834 36.4509 51.0515 36.4509C50.7197 36.4509 50.4507 36.7167 50.4507 37.0446C50.4507 37.3725 50.7197 37.6383 51.0515 37.6383Z" fill="white"/>
<path d="M56.5497 5.29848C58.0304 5.29848 59.2308 4.11238 59.2308 2.64924C59.2308 1.18611 58.0304 0 56.5497 0C55.069 0 53.8686 1.18611 53.8686 2.64924C53.8686 4.11238 55.069 5.29848 56.5497 5.29848Z" fill="#D1D2D4"/>
<path d="M57.2922 2.13535C57.6241 2.13535 57.8931 1.86955 57.8931 1.54166C57.8931 1.21376 57.6241 0.947956 57.2922 0.947956C56.9604 0.947956 56.6914 1.21376 56.6914 1.54166C56.6914 1.86955 56.9604 2.13535 57.2922 2.13535Z" fill="white"/>
<path d="M57.8917 11.8614C59.3724 11.8614 60.5728 10.6753 60.5728 9.21214C60.5728 7.749 59.3724 6.56289 57.8917 6.56289C56.4109 6.56289 55.2106 7.749 55.2106 9.21214C55.2106 10.6753 56.4109 11.8614 57.8917 11.8614Z" fill="#D1D2D4"/>
<path d="M58.6342 8.69825C58.9661 8.69825 59.2351 8.43244 59.2351 8.10455C59.2351 7.77666 58.9661 7.51085 58.6342 7.51085C58.3024 7.51085 58.0334 7.77666 58.0334 8.10455C58.0334 8.43244 58.3024 8.69825 58.6342 8.69825Z" fill="white"/>
<path d="M49.9291 6.70012C51.4099 6.70012 52.6103 5.51401 52.6103 4.05088C52.6103 2.58774 51.4099 1.40163 49.9291 1.40163C48.4484 1.40163 47.248 2.58774 47.248 4.05088C47.248 5.51401 48.4484 6.70012 49.9291 6.70012Z" fill="#D1D2D4"/>
<path d="M50.6717 3.53699C51.0035 3.53699 51.2725 3.27118 51.2725 2.94329C51.2725 2.6154 51.0035 2.34959 50.6717 2.34959C50.3399 2.34959 50.0709 2.6154 50.0709 2.94329C50.0709 3.27118 50.3399 3.53699 50.6717 3.53699Z" fill="white"/>
<path d="M51.2711 13.2056C52.7519 13.2056 53.9522 12.0195 53.9522 10.5564C53.9522 9.09323 52.7519 7.90712 51.2711 7.90712C49.7904 7.90712 48.59 9.09323 48.59 10.5564C48.59 12.0195 49.7904 13.2056 51.2711 13.2056Z" fill="#D1D2D4"/>
<path d="M52.0137 10.0425C52.3455 10.0425 52.6145 9.77667 52.6145 9.44878C52.6145 9.12088 52.3455 8.85508 52.0137 8.85508C51.6818 8.85508 51.4128 9.12088 51.4128 9.44878C51.4128 9.77667 51.6818 10.0425 52.0137 10.0425Z" fill="white"/>
<path d="M55.5719 32.9335C57.0526 32.9335 58.253 31.7474 58.253 30.2842C58.253 28.8211 57.0526 27.635 55.5719 27.635C54.0912 27.635 52.8908 28.8211 52.8908 30.2842C52.8908 31.7474 54.0912 32.9335 55.5719 32.9335Z" fill="#D1D2D4"/>
<path d="M56.3131 29.7718C56.6449 29.7718 56.9139 29.506 56.9139 29.1781C56.9139 28.8502 56.6449 28.5844 56.3131 28.5844C55.9812 28.5844 55.7122 28.8502 55.7122 29.1781C55.7122 29.506 55.9812 29.7718 56.3131 29.7718Z" fill="white"/>
<path d="M56.9918 39.4376C58.4726 39.4376 59.6729 38.2515 59.6729 36.7883C59.6729 35.3252 58.4726 34.1391 56.9918 34.1391C55.5111 34.1391 54.3107 35.3252 54.3107 36.7883C54.3107 38.2515 55.5111 39.4376 56.9918 39.4376Z" fill="#D1D2D4"/>
<path d="M57.733 36.2744C58.0648 36.2744 58.3338 36.0086 58.3338 35.6808C58.3338 35.3529 58.0648 35.0871 57.733 35.0871C57.4011 35.0871 57.1321 35.3529 57.1321 35.6808C57.1321 36.0086 57.4011 36.2744 57.733 36.2744Z" fill="white"/>
<path d="M62.1727 31.5081C63.6534 31.5081 64.8538 30.322 64.8538 28.8588C64.8538 27.3957 63.6534 26.2096 62.1727 26.2096C60.6919 26.2096 59.4916 27.3957 59.4916 28.8588C59.4916 30.322 60.6919 31.5081 62.1727 31.5081Z" fill="#D1D2D4"/>
<path d="M62.9152 28.3463C63.2471 28.3463 63.5161 28.0805 63.5161 27.7526C63.5161 27.4247 63.2471 27.1589 62.9152 27.1589C62.5834 27.1589 62.3144 27.4247 62.3144 27.7526C62.3144 28.0805 62.5834 28.3463 62.9152 28.3463Z" fill="white"/>
<path d="M63.594 38.0121C65.0747 38.0121 66.2751 36.826 66.2751 35.3629C66.2751 33.8997 65.0747 32.7136 63.594 32.7136C62.1133 32.7136 60.9129 33.8997 60.9129 35.3629C60.9129 36.826 62.1133 38.0121 63.594 38.0121Z" fill="#D1D2D4"/>
<path d="M64.3352 34.8504C64.667 34.8504 64.936 34.5846 64.936 34.2567C64.936 33.9288 64.667 33.663 64.3352 33.663C64.0033 33.663 63.7343 33.9288 63.7343 34.2567C63.7343 34.5846 64.0033 34.8504 64.3352 34.8504Z" fill="white"/>
<path d="M1.66648 52.9826L8.97574 63.1945C8.94315 61.9959 8.69233 60.7973 8.63423 59.6029C8.52795 57.427 8.71925 55.167 8.63706 52.9826H10.3375V65.6127H8.67107L1.59421 55.6753L1.36322 55.4681L1.70474 58.9924L1.7019 65.6127H0V52.9826H1.66648Z" fill="black"/>
<path d="M31.5497 65.6121H29.7812V59.5323C29.7812 59.3839 29.4836 58.7398 29.3859 58.5788C28.367 56.8971 25.6037 56.9601 24.6259 58.6726C24.5423 58.8182 24.2731 59.4763 24.2731 59.5995V65.6121H22.5726V56.4084H24.2731V58.0215L24.8824 57.1785C27.188 55.1398 31.5483 56.2628 31.5483 59.6667V65.6121H31.5497Z" fill="black"/>
<path d="M67.7233 52.982V58.0201C67.9118 57.88 67.9798 57.635 68.1328 57.4502C69.7455 55.5066 73.6112 55.7587 74.6712 58.1755C74.7704 58.4009 74.9986 59.1164 74.9986 59.3293V65.6107H73.9783V59.7998C73.9783 58.3953 72.5484 57.2149 71.2164 57.0875C69.5995 56.9321 67.7233 58.0761 67.7233 59.7998V65.6107H66.703V52.9806H67.7233V52.982Z" fill="black"/>
<path d="M65.6161 59.1626H64.6298C64.2855 58.2385 63.8363 57.6112 62.8642 57.2793C58.868 55.9155 56.7226 61.0936 59.0905 63.8296C60.6337 65.6135 63.9071 65.3195 64.5958 62.9251H65.6161C65.4518 64.5619 63.8944 65.7437 62.3186 65.9482C55.5577 66.8275 55.3225 55.4562 62.1741 56.0807C63.8306 56.232 65.4376 57.4656 65.6161 59.1626Z" fill="black"/>
<path d="M49.2291 53.9888H45.0814V65.6107H44.0611V54.0882L43.959 53.9874H39.8453V52.9792H49.1271C49.3382 53.2313 49.1838 53.6681 49.2291 53.9874V53.9888Z" fill="black"/>
<path d="M21.8839 65.2873C21.8527 65.2369 21.1399 64.9414 20.9528 64.6278C20.899 64.5368 20.8409 64.3897 20.8225 64.2861C20.3407 61.4548 22.2565 57.1967 18.3865 56.2796C16.037 55.7223 11.8935 56.0233 11.8297 59.1641H13.4962C13.6464 58.926 13.6223 58.695 13.7725 58.4303C14.4541 57.2261 17.2755 57.1995 18.3369 57.8744C19.4408 58.576 18.9746 59.4819 17.9189 59.839C15.8315 60.5433 11.7971 59.8558 11.491 62.8943C11.1354 66.4159 16.139 66.4103 18.2845 65.1052L19.1744 64.3393L19.4465 65.6149H21.8938C21.8796 65.5211 21.9264 65.3615 21.8824 65.2901L21.8839 65.2873ZM18.9378 62.5232C18.2689 64.807 13.2014 65.5029 13.2156 62.9475C13.2213 61.9239 14.9218 61.6607 15.7054 61.48C16.8277 61.221 17.977 61.0656 19.105 60.8429C19.1191 61.3918 19.0922 61.9925 18.9363 62.5232H18.9378Z" fill="black"/>
<path d="M36.1595 56.0919C31.3202 56.5428 30.3367 63.3354 34.4037 65.4455C37.1996 66.8961 40.8386 65.3853 41.4452 62.2558C42.1211 58.7664 39.8821 55.7447 36.1595 56.0933V56.0919ZM35.7825 64.4877C32.6706 63.635 32.8449 57.7414 36.4315 57.4362C41.285 57.0217 40.8599 65.8796 35.7825 64.4877Z" fill="black"/>
<path d="M55.9602 60.3375C55.9602 58.2315 54.1336 56.2068 51.9853 56.0681C45.4059 55.6453 45.8182 67.3512 52.7789 65.86C54.1818 65.5589 55.3863 64.3295 55.6215 62.9237H54.5332C54.1081 64.5466 52.2121 65.3377 50.6589 64.7706C49.3184 64.2819 48.4086 62.7613 48.4143 61.3792H55.9616V60.3375H55.9602ZM48.4129 60.3711C48.6141 56.0037 54.76 56.0359 54.8719 60.3711H48.4129Z" fill="black"/>
</g>
<defs>
<clipPath id="clip0_119_955">
<rect width="75" height="66" fill="white"/>
</clipPath>
</defs>
</svg>
